<?xml version="1.0" encoding="UTF-8"?>
<svg width="512" height="512" viewBox="0 0 512 512" fill="none" xmlns="http://www.w3.org/2000/svg">
  <path d="M495.9 300.6c-2.3-5.4-5.7-10.3-10-14.6l-180-180c-4.3-4.3-9.2-7.7-14.6-10-5.4-2.3-11.2-3.5-17.3-3.5s-11.9 1.2-17.3 3.5c-5.4 2.3-10.3 5.7-14.6 10l-60 60c-4.3 4.3-7.7 9.2-10 14.6-2.3 5.4-3.5 11.2-3.5 17.3 0 6.1 1.2 11.9 3.5 17.3 2.3 5.4 5.7 10.3 10 14.6l60 60L132.1 379.8 78 425.9c-9 9-15.9 19.7-20.5 31.5-4.6 11.8-7 24.3-7 37 0 12.8 2.4 25.3 7 37 4.6 11.8 11.5 22.5 20.5 31.5 9 9 19.7 15.9 31.5 20.5 11.8 4.6 24.3 7 37 7 12.8 0 25.3-2.4 37-7 11.8-4.6 22.5-11.5 31.5-20.5l47.2-47.2 89.9-89.9 60 60c4.3 4.3 9.2 7.7 14.6 10 5.4 2.3 11.2 3.5 17.3 3.5 6.1 0 11.9-1.2 17.3-3.5 5.4-2.3 10.3-5.7 14.6-10l60-60c4.3-4.3 7.7-9.2 10-14.6 2.3-5.4 3.5-11.2 3.5-17.3 0-6.1-1.2-11.9-3.5-17.3z" fill="url(#paint0_linear)"/>
  <defs>
    <linearGradient id="paint0_linear" x1="100" y1="93" x2="412" y2="419" gradientUnits="userSpaceOnUse">
      <stop stop-color="#6366F1"/>
      <stop offset="1" stop-color="#2563EB"/>
    </linearGradient>
  </defs>
</svg> 