<svg xmlns="http://www.w3.org/2000/svg" viewBox="0 0 305.36 124.55"><defs><style>.cls-1{fill:#feffff;}</style></defs><g id="Layer_2" data-name="Layer 2"><g id="Layer_1-2" data-name="Layer 1"><path class="cls-1" d="M.08,81.41,6.79,78.3c.58,1.43,1.07,2.76,1.65,4,5,10.89,15.62,14.59,24.64,11.71a15.14,15.14,0,0,0,6.15-3.8c4-4,3.39-11,1.14-14.4A25.92,25.92,0,0,0,32.08,68c-3.92-2.41-8-4.63-11.94-6.93A62.82,62.82,0,0,1,7.68,52.25c-10.76-10.39-7.12-28.93,6.87-34,8.65-3.15,17.36-3,25.63,1.41,5.77,3.05,8.93,8.43,10.87,14.63a1.07,1.07,0,0,1-.31.94c-1.91,1-3.86,1.93-5.92,2.95-.28-.76-.5-1.41-.75-2-1.5-4-3.38-7.7-6.74-10.33a18.45,18.45,0,0,0-18.64-2.92C12,25.29,7.89,34.34,14.54,41.45a35.77,35.77,0,0,0,7.93,6.17C28.3,51.08,34.23,54.35,39.94,58a45.36,45.36,0,0,1,7.89,6.57c5.85,6,6.51,13.23,3.81,21A19.93,19.93,0,0,1,40.32,97.46a33.44,33.44,0,0,1-25.13.91C7.76,95.79,3.26,90.06.55,82.67c-.13-.35-.31-.69-.47-1Z"/><path class="cls-1" d="M96.77,100.24c-23.71.11-41.51-20.37-41-43.43.52-21.88,17.92-40.61,41.08-40.56,23.79.06,41.29,19.77,41,42.36C137.51,81.44,119.24,100.24,96.77,100.24ZM70.42,57.68c.16,2.56.23,5.13.49,7.68.74,7.21,2.52,14.07,6.51,20.18,8.74,13.41,24.87,12.39,32.72,6.31,5.2-4,8.37-9.43,10.34-15.67,2.72-8.67,3.08-17.58,2.1-26.56a42.55,42.55,0,0,0-5.49-17.52c-7.08-11.81-22-15.44-33.18-8-5.32,3.53-8.52,8.73-10.58,14.76A61.58,61.58,0,0,0,70.42,57.68Z"/><path class="cls-1" d="M231,56.79V21.05c0-3,0-3,3-3.05l24.26-.06c.34,0,.68,0,1,0,1.45.1,2,.62,2,2.09,0,5.37,0,10.74,0,16.12a1.3,1.3,0,0,1-1.47,1.48c-2.31,0-2.63-.24-2.91-2.64-.15-1.27-.3-2.55-.55-3.81-1.46-7.32-9.36-11.65-16-8.82a7.6,7.6,0,0,0-4.88,6.84c0,.46,0,.93,0,1.4q0,27.55-.05,55.12c0,3.7.05,7.4.09,11.09,0,2.19-.52,2.76-2.67,2.76-7.18,0-14.36,0-21.54,0-.94,0-1.78-.07-1.95-1.26-.13-.86.52-1.52,1.74-1.74s2.62-.36,3.92-.6c3.18-.59,4.63-2.23,4.81-5.52.14-2.68.26-5.36.26-8q0-29.08,0-58.17c0-.47,0-.93,0-1.4-.08-1-.59-1.61-1.62-1.51-3.39.34-6.8.49-10.14,1.1-5.15.95-8.49,4.78-9.29,10.13-.16,1.12-.31,2.23-.43,3.35s-.75,1.76-2.21,1.74c-1.29,0-1.88-.51-1.89-1.79,0-3.77,0-7.55,0-11.33,0-1.44,0-2.88,0-4.32,0-1.75.46-2.21,2.15-2.21l24.94,0c1.73,0,3.47,0,5.21-.05s2.33.51,2.36,2.32c0,1,0,2,0,3l0,69A15.2,15.2,0,0,0,229.1,95c.17.56.74.46,1.16.49.8,0,.78-.64.79-1.37,0-1.44,0-2.88,0-4.32V56.79Z"/><path class="cls-1" d="M191.28,23.44H155.07c0,.52,0,.94,0,1.35,0,8.6,0,17.21,0,25.81,0,1.12.34,1.35,1.34,1.34,7.86,0,15.72,0,23.58,0,1,0,1.44.27,1.34,1.37a16.64,16.64,0,0,0,0,2.91c.1,1-.45,1.11-1.23,1.11-7.67,0-15.34,0-23,0h-2v1.56q0,19,0,38.08c0,1.15-.25,1.53-1.43,1.49-3.25-.09-6.5,0-9.75,0h-1.34c0-.51-.06-.92-.06-1.33q0-38.83,0-77.66c0-1.1.32-1.36,1.34-1.36q23.05.06,46.13,0c1.06,0,1.49.25,1.41,1.41S191.28,22,191.28,23.44Z"/><path class="cls-1" d="M215,106.14a23.26,23.26,0,0,1,2,1.62c.84.89,1.6,1.86,2.41,2.79a6.56,6.56,0,0,0,7.88,2,36.39,36.39,0,0,0,11.41-7c8.16-7.11,14.93-15.5,21.22-24.35,1.13-1.6,2.25-3.21,3.35-4.85.92-1.37.93-2.07,0-3.4q-6-8.78-12.06-17.53a4.09,4.09,0,0,0-3.14-1.59c-.37,0-.81.08-1.12-.08a10.48,10.48,0,0,1-1.44-1.09,9.53,9.53,0,0,1,1.36-1.27,2.22,2.22,0,0,1,1.11-.11c4.61,0,9.21.08,13.82,0a5,5,0,0,1,4.44,2.3q6.6,9.42,13.24,18.81c.85,1.22.85,2-.21,3.38-5.09,6.91-10.11,13.88-15.37,20.65a122.89,122.89,0,0,1-18.29,18.89A43.56,43.56,0,0,1,231.93,123c-1,.36-2.25.09-3.36.24a8.74,8.74,0,0,1-5.88-1.6,16.75,16.75,0,0,1-8.08-13.31A9.79,9.79,0,0,1,215,106.14Z"/><path class="cls-1" d="M273.29,54.66a9.15,9.15,0,0,1,1.66.72c1.15.76,1.57.77,2.3-.46,1.88-3.15,3.86-6.25,5.49-9.53,2.81-5.64,5.54-11.33,8-17.13a34.57,34.57,0,0,0,3.19-14c-.07-4.76-3.37-7.55-7.91-6.64a28.05,28.05,0,0,0-9.11,3.75c-2.86,1.75-5.62,3.67-8.47,5.43a7.64,7.64,0,0,1-2.41.82c-.19,0-.73-.5-.69-.69a4.75,4.75,0,0,1,.72-2.22,18.31,18.31,0,0,1,3.38-3.09c4.31-3,8.63-5.88,13.07-8.62,1.62-1,3.61-1.34,5.33-2.19a8.14,8.14,0,0,1,4.85-.73c4.77.68,8.87,2.57,11,7.43A17.91,17.91,0,0,1,305,16.09c-.55,7.5-2.79,14.56-5.55,21.46a182,182,0,0,1-14.48,27.72c-.65,1-1.24,2.14-1.94,3.16s-1.45,1.15-2.14.08q-3.83-5.94-7.5-12a4.81,4.81,0,0,1-.33-1.62Z"/><path class="cls-1" d="M305.18,99.82H304c-6.65,0-13.3,0-19.94,0A3.62,3.62,0,0,1,280.67,98c-1.38-2.14-2.85-4.22-4.27-6.33-.54-.82-1.11-.94-1.87-.28a14.94,14.94,0,0,1-1.65,1.22c-.16.1-.51.14-.6,0a.86.86,0,0,1-.21-.69,4.15,4.15,0,0,1,.59-1.38q4.26-5.75,8.6-11.44c1-1.33,1.54-1.33,2.53.07,3,4.25,5.94,8.54,8.9,12.82.39.57.79,1.14,1.16,1.73a6.56,6.56,0,0,0,4.73,3.07c1.9.33,3.78.74,5.67,1.14C305.47,98.19,305.51,98.29,305.18,99.82Z"/><path class="cls-1" d="M0,107.79H1.7v16.62H0Z"/><path class="cls-1" d="M24.3,107.79v16.62H22.9L12.54,110.92v13.49h-1.7V107.79h1.4l10.38,13.48V107.79Z"/><path class="cls-1" d="M46.9,107.79v16.62H45.5L35.14,110.92v13.49h-1.7V107.79h1.4l10.38,13.48V107.79Z"/><path class="cls-1" d="M54.61,116.1a8.46,8.46,0,1,1,8.47,8.45A8.23,8.23,0,0,1,54.61,116.1Zm15.21,0A6.77,6.77,0,1,0,63.08,123,6.63,6.63,0,0,0,69.82,116.1Z"/><path class="cls-1" d="M92.14,107.79,85,124.41H83.33L76.2,107.79H78l6.16,14.43,6.22-14.43Z"/><path class="cls-1" d="M108,120H99l-1.93,4.44H95.3l7.36-16.62h1.68l7.36,16.62h-1.79Zm-.63-1.43-3.86-8.92-3.87,8.92Z"/><path class="cls-1" d="M120.59,109.31h-5.66v-1.52h13v1.52h-5.66v15.1h-1.7Z"/><path class="cls-1" d="M134.56,107.79h1.7v16.62h-1.7Z"/><path class="cls-1" d="M144,116.1a8.46,8.46,0,1,1,8.46,8.45A8.23,8.23,0,0,1,144,116.1Zm15.21,0a6.77,6.77,0,1,0-6.75,6.88A6.63,6.63,0,0,0,159.18,116.1Z"/><path class="cls-1" d="M182.05,107.79v16.62h-1.4l-10.36-13.49v13.49h-1.7V107.79H170l10.38,13.48V107.79Z"/><path class="cls-1" d="M189.65,122.39l.66-1.35a7.81,7.81,0,0,0,5.32,2c3,0,4.33-1.3,4.33-2.94,0-4.56-9.92-1.76-9.92-7.9,0-2.45,1.84-4.56,5.93-4.56a9,9,0,0,1,5,1.47l-.58,1.4a8.16,8.16,0,0,0-4.42-1.38c-2.94,0-4.25,1.36-4.25,3,0,4.56,9.91,1.8,9.91,7.86,0,2.44-1.88,4.53-6,4.53A8.56,8.56,0,0,1,189.65,122.39Z"/></g></g></svg>